<svg width="48" height="48" viewBox="0 0 48 48" fill="none" xmlns="http://www.w3.org/2000/svg">
<path d="M15 6C17.4073 6.7222 21.1668 8.25574 23.9999 10.3727M15 6L6 10.5V31.7143M15 6V26.5714M23.9999 10.3727C26.2105 12.0246 27.8571 14.0317 27.8571 16.2857C27.8571 22.7143 20.1428 22.7143 20.1428 16.2857C20.1428 14.0317 21.7894 12.0246 23.9999 10.3727ZM23.9999 10.3727C26.833 8.25574 30.5926 6.7222 32.9999 6M32.9999 6V26.5714M32.9999 6L42 9.85714L41.9999 31.7143M15 26.5714L6 31.7143M15 26.5714L23.9999 31.7143L32.9999 26.5714M6 31.7143L23.9999 42L41.9999 31.7143M32.9999 26.5714L41.9999 31.7143" stroke="black" stroke-linejoin="round"/>
</svg>
