<svg width="24" height="24" fill="currentColor" xmlns="http://www.w3.org/2000/svg" viewBox="0 0 24 24"><path d="M7.495 15.034c0-.354-.147-.656-.441-.904a1.576 1.576 0 00-1.05-.372c-.407 0-.764.124-1.072.372-.308.248-.455.55-.44.904.013.354.16.65.44.886s.637.36 1.071.372c.435.012.785-.112 1.05-.372.267-.26.414-.555.442-.886zm12.014 0c0-.354-.147-.656-.441-.904a1.606 1.606 0 00-1.072-.372c-.42 0-.77.124-1.05.372s-.427.55-.44.904c-.015.354.132.65.44.886s.658.36 1.05.372c.393.012.75-.112 1.072-.372.322-.26.469-.555.44-.886zm-.546-3.917l-.84-3.81a.644.644 0 00-.274-.372.809.809 0 00-.462-.142H6.613a.808.808 0 00-.462.142.644.644 0 00-.274.372l-.84 3.81c-.042.19.014.36.168.514.154.154.343.23.567.23h12.456c.238 0 .427-.076.567-.23a.602.602 0 00.168-.514zm-2.647-6.06a.428.428 0 00-.168-.337.599.599 0 00-.399-.142H8.251a.599.599 0 00-.4.142.428.428 0 00-.167.337c0 .13.056.242.168.336a.599.599 0 00.399.142h7.498a.599.599 0 00.4-.142.428.428 0 00.167-.336zM21 12.234v5.954h-1.491v1.276c0 .343-.147.638-.441.887-.294.248-.651.372-1.072.372-.42 0-.77-.124-1.05-.372-.28-.249-.427-.544-.44-.887v-1.276H7.494v1.276c0 .343-.147.638-.441.887a1.576 1.576 0 01-1.05.372c-.407 0-.764-.124-1.072-.372-.308-.249-.455-.544-.44-.887v-1.276H3v-5.954c0-.744.098-1.483.294-2.215l1.197-4.484c.084-.52.47-.975 1.155-1.364.687-.39 1.583-.68 2.689-.869 1.106-.189 2.331-.29 3.675-.301 1.345-.012 2.563.089 3.655.301 1.092.213 1.988.502 2.689.869.7.366 1.085.82 1.155 1.364l1.218 4.484c.182.673.273 1.412.273 2.215z"/></svg>
