<!-- Generated by IcoMoon.io -->
<svg version="1.1" xmlns="http://www.w3.org/2000/svg" width="32" height="32" viewBox="0 0 32 32">
<title>sliders</title>
<path d="M7.333 25.333v2.667h-7.333v-2.667h7.333zM14.667 22.666c0.729 0 1.333 0.604 1.333 1.333v5.333c0 0.729-0.604 1.333-1.333 1.333h-5.333c-0.729 0-1.333-0.604-1.333-1.333v-5.333c0-0.729 0.604-1.333 1.333-1.333h5.333zM18 14.666v2.667h-18v-2.667h18zM4.667 4v2.667h-4.666v-2.667h4.666zM32 25.333v2.667h-15.333v-2.667h15.333zM12 1.333c0.729 0 1.333 0.604 1.333 1.333v5.333c0 0.729-0.604 1.333-1.333 1.333h-5.333c-0.729 0-1.333-0.604-1.333-1.333v-5.333c0-0.729 0.604-1.333 1.333-1.333h5.333zM25.333 12c0.729 0 1.333 0.604 1.333 1.333v5.333c0 0.729-0.604 1.333-1.333 1.333h-5.333c-0.729 0-1.333-0.604-1.333-1.333v-5.333c0-0.729 0.604-1.333 1.333-1.333h5.333zM32 14.666v2.667h-4.666v-2.667h4.666zM32 4v2.667h-18v-2.667h18z"></path>
</svg>

