<svg viewBox="0 0 24 24" width="24" height="24" fill="currentColor" xmlns="http://www.w3.org/2000/svg"><path d="M11.957 3c-2.05 0-4.101.702-5.756 2.088 3.112-2.52 7.699-2.34 10.576.558a7.916 7.916 0 011.601 8.912c-.18.522-.09.9.216 1.224.378.36 1.097.414 1.511 0 .054-.054.216-.27.27-.432a9.07 9.07 0 00-2.015-9.704A9.085 9.085 0 0011.957 3zM4.6 7.933a.95.95 0 00-.701.288c-.054.054-.234.27-.27.432a9.035 9.035 0 002.015 9.704c3.327 3.33 8.615 3.51 12.159.558-3.112 2.52-7.699 2.34-10.595-.558-2.41-2.413-2.931-5.995-1.6-8.912.197-.522.108-.9-.216-1.224a1.03 1.03 0 00-.792-.288z"/></svg>
