<svg width="24" height="24" fill="none" stroke="currentColor" xmlns="http://www.w3.org/2000/svg" viewBox="0 0 24 24"><path d="M7.582 14.768a1 1 0 00-.275-.863l-3.126-3.174a.648.648 0 01-.163-.302.694.694 0 01.013-.363.635.635 0 01.183-.288.538.538 0 01.267-.13l4.328-.65a1 1 0 00.756-.564l1.925-4.09h0l.002-.003a.61.61 0 01.217-.255.52.52 0 01.569 0 .608.608 0 01.216.255h0l.003.005 1.925 4.073a1 1 0 00.755.562l4.334.652s0 0 0 0a.537.537 0 01.274.13.635.635 0 01.184.29c.037.118.04.245.012.366a.646.646 0 01-.168.305h0l-.005.004-3.13 3.177a1 1 0 00-.274.863l.735 4.493v.002a.691.691 0 01-.039.36.62.62 0 01-.201.269.513.513 0 01-.562.045s0 0 0 0l-3.863-2.118a1 1 0 00-.962 0L7.65 19.936h-.001a.513.513 0 01-.562-.044.62.62 0 01-.201-.27.691.691 0 01-.04-.36h.001l.735-4.494z" stroke-width="2" stroke-linejoin="round"/></svg>
