<svg width="24" height="24" fill="currentColor" xmlns="http://www.w3.org/2000/svg" viewBox="0 0 24 24"><path d="M8.128 20.814a1.512 1.512 0 01-1.643-.124 1.62 1.62 0 01-.53-.7 1.691 1.691 0 01-.096-.886l.736-4.497-3.13-3.177a1.647 1.647 0 01-.42-.773c-.07-.293-.058-.6.031-.888.09-.287.253-.543.474-.739.22-.196.49-.324.776-.37l4.334-.652 1.925-4.089a1.61 1.61 0 01.577-.67 1.519 1.519 0 011.662 0c.25.162.45.395.577.67l1.925 4.073 4.334.652c.29.044.562.171.785.368.224.197.39.455.48.745.09.29.1.601.028.897a1.646 1.646 0 01-.432.776l-3.13 3.177.736 4.497c.047.299.014.605-.096.886a1.62 1.62 0 01-.53.7 1.512 1.512 0 01-1.643.124l-3.865-2.118-3.865 2.118z"/></svg>
